<?xml version="1.0" encoding="UTF-8" standalone="no" ?>
<!DOCTYPE svg PUBLIC "-//W3C//DTD SVG 1.1//EN" "http://www.w3.org/Graphics/SVG/1.1/DTD/svg11.dtd">
<svg xmlns="http://www.w3.org/2000/svg" xmlns:xlink="http://www.w3.org/1999/xlink" version="1.1" width="1080" height="1080" viewBox="0 0 1080 1080" xml:space="preserve">
<desc>Created with Fabric.js 5.2.4</desc>
<defs>
</defs>
<rect x="0" y="0" width="100%" height="100%" fill="transparent"></rect>
<g transform="matrix(1 0 0 1 540 540)" id="4705e824-5879-48df-a281-8b9819887312"  >
</g>
<g transform="matrix(1 0 0 1 540 540)" id="7b5169d8-b743-40a3-bdf6-f3e65f144c22"  >
<rect style="stroke: none; stroke-width: 1; stroke-dasharray: none; stroke-linecap: butt; stroke-dashoffset: 0; stroke-linejoin: miter; stroke-miterlimit: 4; fill: rgb(255,255,255); fill-rule: nonzero; opacity: 1; visibility: hidden;" vector-effect="non-scaling-stroke"  x="-540" y="-540" rx="0" ry="0" width="1080" height="1080" />
</g>
<g transform="matrix(0.95 0 0 0.95 628.94 518.82)" style="" id="1796b2e1-dc9f-402f-8b54-6bee3b5a3a51"  >
		<text xml:space="preserve" font-family="Raleway" font-size="200" font-style="normal" font-weight="900" style="stroke: none; stroke-width: 1; stroke-dasharray: none; stroke-linecap: butt; stroke-dashoffset: 0; stroke-linejoin: miter; stroke-miterlimit: 4; fill: rgb(255,255,255); fill-rule: nonzero; opacity: 1; white-space: pre;" ><tspan x="-334.2" y="62.83" >M</tspan><tspan x="-127.4" y="62.83" >E</tspan><tspan x="25.8" y="62.83" >G</tspan><tspan x="209.6" y="62.83" >P</tspan></text>
</g>
<g transform="matrix(5.21 0 0 5.21 229.33 514.26)"  >
<path style="stroke: none; stroke-width: 1; stroke-dasharray: none; stroke-linecap: butt; stroke-dashoffset: 0; stroke-linejoin: miter; stroke-miterlimit: 4; fill: rgb(0,209,178); fill-rule: nonzero; opacity: 1;"  transform=" translate(-25.92, -25.2)" d="M 25.671875 2.9804688 C 22.558862 3.0069886 19.965928 3.5423243 17.898438 4.5527344 C 15.535591 5.7074887 13.875635 7.5185595 13.060547 9.7578125 L 12.714844 10.708984 C 12.067875 11.458969 11.458952 12.335779 11.03125 13.568359 C 10.421701 15.324998 10.153336 17.71723 10.310547 21.525391 C 10.340097 22.246253 10.210687 22.669408 10.085938 23.279297 C 9.961187 23.889186 9.883899 24.700064 10.177734 25.660156 C 10.228394 25.825675 10.329096 26.604627 10.423828 27.601562 C 10.518558 28.598499 10.640283 29.870439 10.863281 31.304688 C 11.309278 34.173182 12.162955 37.701383 14.072266 41.080078 C 15.61803 43.814854 16.641326 45.378389 17.927734 46.332031 C 19.214143 47.285674 20.637043 47.412109 22.412109 47.412109 C 24.187175 47.412109 26.53201 47.301462 29.121094 46.097656 C 31.710177 44.893851 34.514619 42.616414 37.355469 38.445312 C 38.539189 36.70827 39.277054 33.607503 39.341797 30.412109 C 39.470258 30.348212 39.591852 30.277873 39.699219 30.197266 C 40.384955 29.682441 40.814033 28.922796 41.169922 28.017578 C 41.881494 26.207667 42.20256 23.763538 41.355469 21.644531 L 41.355469 21.642578 C 41.046632 20.870914 40.695504 20.279705 40.234375 19.861328 C 40.294357 14.470439 39.001453 10.32206 36.646484 7.4726562 C 34.284209 4.6144124 30.876274 3.1408527 27.037109 3 C 26.571144 2.9829045 26.116591 2.9766802 25.671875 2.9804688 z M 28 9 C 29.222028 9 29.918743 9.4272254 30.552734 10.240234 C 31.186726 11.053244 31.666964 12.306902 32.025391 13.744141 C 32.742244 16.618618 32.919404 20.092659 34.107422 22.449219 C 34.662358 23.549964 35.517092 24.128637 36.279297 24.175781 C 36.732407 24.203805 37.060999 24.084577 37.294922 23.96875 C 37.63800617509076 23.86201474877165 37.89746706245819 23.57944090154559 37.974609 23.228516 C 37.982080918447785 23.19627458634322 37.98794780427767 23.16368214823588 37.992188 23.130859 C 37.99219054080881 23.129557001239576 37.99219054080881 23.128254998760426 37.992188 23.126953 C 37.99516064913578 23.100997853993416 37.99711514838745 23.074936196025 37.998047 23.048828 C 37.99874979766327 23.042974537580626 37.999400823113305 23.037114975184004 38 23.03125 C 38.000162642336846 23.020833968194047 38.000162642336846 23.010416031805953 38 23 C 38 22.335833 38.513608 21.411096 38.724609 21.275391 C 38.83011 21.207541 38.699399 21.207846 38.787109 21.259766 C 38.874819 21.311696 39.190713 21.618385 39.498047 22.386719 C 40.062034 23.796286 39.854316 25.897091 39.308594 27.285156 C 39.052798 27.935783 38.71977 28.361788 38.548828 28.515625 C 38.16523316921891 28.150384444344088 37.563394226387786 28.147558341762274 37.17638620990434 28.50918031686246 C 36.78937819342089 28.870802291962647 36.75142797032584 29.47145017594371 37.089844 29.878906 C 37.16451 29.971144 37.249922 30.057616 37.341797 30.138672 C 37.29238 33.106726 36.430689 36.2507 35.703125 37.318359 C 33.014974 41.265259 30.49626 43.253462 28.277344 44.285156 C 26.058427 45.316851 24.108043 45.412109 22.412109 45.412109 C 20.716175 45.412109 19.935732 45.331919 19.119141 44.726562 C 18.302549 44.121206 17.325735 42.772927 15.8125 40.095703 C 14.071811 37.015399 13.264347 33.728301 12.839844 30.998047 C 12.627592 29.63292 12.510721 28.408767 12.416016 27.412109 C 12.321306 26.415452 12.282187 25.7027 12.089844 25.074219 C 12.049094 24.941068 12.025058 24.83087 12.003906 24.724609 C 12.023127340765754 24.682814468558988 12.039442082480798 24.63974352370113 12.052734 24.595703 C 12.070134 24.540753 12.649902 23.999478 13.392578 23.871094 C 14.135255 23.742709 14.755948 23.903494 15.041016 24.333984 C 15.230599419994938 24.648928098837946 15.577679158719446 24.834480756624377 15.944875201458439 24.817197101726048 C 16.31207124419743 24.799913446827723 16.640187412989338 24.58257980096955 16.79934979395332 24.251220486907464 C 16.958512174917296 23.919861172845376 16.923061982195936 23.527895080331366 16.707031 23.230469 C 15.857099 21.946959 14.305808 21.683775 13.052734 21.900391 C 12.797075 21.944586 12.546521 22.014816 12.298828 22.091797 C 12.31092 21.888886 12.318124 21.675841 12.308594 21.443359 C 12.156804 17.76652 12.439424 15.614971 12.921875 14.224609 C 13.389272 12.877631 14.027656 12.178763 14.900391 11.283203 C 16.513179 11.420101 18.242742 10.907569 20.138672 10.388672 C 22.519306 9.7371298 25.172222 9 28 9 z M 26.441406 19.947266 C 26.268862 19.947618 26.094984 19.955396 25.917969 19.972656 C 24.50185 20.11074 23.074717 20.762357 21.072266 21.966797 C 20.765856794177285 22.150973403118115 20.581000340475605 22.48464525350627 20.587347378676697 22.842090723451694 C 20.593694416877785 23.19953619339712 20.790280398324825 23.526434899596943 21.10303509844994 23.699617018847405 C 21.415789798575055 23.872799138097868 21.797184414752305 23.865946476744632 22.103516 23.681641 C 24.013064 22.53308 25.189197 22.052807 26.111328 21.962891 C 27.033459 21.872971 27.859045 22.125006 29.242188 22.738281 C 29.57024777787304 22.892081022042404 29.955835416227778 22.85641815400543 30.250121614946746 22.645057566662626 C 30.54440781366571 22.433696979319823 30.701362148556417 22.079698386430497 30.660403310757776 21.719698333313087 C 30.61944447295913 21.359698280195676 30.386978990152386 21.050005745070862 30.052734 20.910156 C 28.766609 20.339898 27.649217 19.9448 26.441406 19.947266 z M 25.5 23 C 24.67157287525381 23 24 23.67157287525381 24 24.5 C 24 25.32842712474619 24.67157287525381 26 25.5 26 C 26.32842712474619 26 27 25.32842712474619 27 24.5 C 27 23.67157287525381 26.32842712474619 23 25.5 23 z M 14.5 25 C 13.67157287525381 25 13 25.67157287525381 13 26.5 C 13 27.32842712474619 13.67157287525381 28 14.5 28 C 15.32842712474619 28 16 27.32842712474619 16 26.5 C 16 25.67157287525381 15.32842712474619 25 14.5 25 z M 23.566406 30.416016 L 22.080078 31.755859 C 21.938682 31.598793 22.020255 31.716824 22.017578 31.767578 C 22.005999 31.765883 22.021675 31.761719 22 31.761719 C 20.382333 31.761719 19.442667 32.061834 18.845703 32.490234 C 18.660569 32.623092 18.597544 32.707971 18.498047 32.8125 C 18.32045 32.71986 18.091848 32.588386 17.789062 32.462891 C 17.454496 32.324222 17.026498 32.180687 16.496094 32.267578 C 15.965689 32.354468 15.437467 32.746705 15.138672 33.253906 L 16.861328 34.269531 C 16.868246 34.257788 16.860535 34.266222 16.865234 34.257812 C 16.873219 34.261707 16.893699 34.256809 17.023438 34.310547 C 17.19162 34.380257 17.416249 34.505092 17.673828 34.634766 C 17.931407 34.764439 18.19989 34.992967 18.828125 34.896484 C 19.279333 34.827314 19.609562 34.521363 19.746094 34.375 C 19.882626 34.228637 19.925951 34.176784 20.011719 34.115234 C 20.183255 33.992135 20.617667 33.761719 22 33.761719 C 22.922218 33.761719 23.692984 33.085986 23.917969 32.402344 C 24.142953 31.718701 24.112898 31.023075 23.566406 30.416016 z M 20.773438 34.925781 C 20.434713 34.924905 20.105336 34.954505 19.791016 35.021484 C 18.591361 35.277239 17.571253 35.89615 16.855469 36.638672 C 16.497576 37.009933 16.210092 37.414379 16.039062 37.886719 C 15.868035 38.359058 15.825244 38.974925 16.138672 39.507812 L 17.367188 38.783203 C 17.53031089774042 38.9124066555232 17.729674056736375 38.98750936865448 17.9375 38.998047 C 17.98147 39.000747 18.638986 39.199432 19.126953 39.425781 C 19.61492 39.65213 20.013672 39.873047 20.013672 39.873047 L 20.642578 40.224609 L 21.173828 39.738281 C 21.173828 39.738281 22.798167 38.313173 25.005859 38.126953 C 25.396033 38.34883 25.567426 38.635466 25.480469 38.414062 L 27.34375 37.683594 C 27.04895 36.932998 26.522961 36.673534 25.949219 36.359375 C 25.936567 36.352448 25.920958 36.346731 25.908203 36.339844 C 25.7713982356239 36.22239226190794 25.60538547407798 36.14410968947533 25.427734 36.113281 C 24.975333 35.904041 24.493392 35.709022 23.974609 35.544922 C 23.254182 35.317038 22.522892 35.11907 21.814453 35.011719 C 21.460234 34.958043 21.112162 34.926657 20.773438 34.925781 z M 20.695312 36.960938 C 20.951707 36.972321 21.284124 37.0111 21.638672 37.064453 C 21.114128 37.350636 20.683426 37.640535 20.427734 37.84375 C 20.249553 37.751461 20.2229 37.729219 19.96875 37.611328 C 19.753768 37.511606 19.525507 37.413391 19.294922 37.318359 C 19.583088 37.171192 19.891468 37.046207 20.208984 36.978516 C 20.308914 36.957228 20.47762 36.951273 20.695312 36.960938 z M 23.003906 39.994141 C 22.846860260549086 39.99531082409399 22.692297414555338 40.03344965478116 22.552734 40.105469 C 20.958208 40.902732 19.330078 40.355469 19.330078 40.355469 C 18.80853562848379 40.17317195434535 18.23796104565465 40.44818462848379 18.055664 40.969727 C 17.87336695434535 41.49126937151621 18.148379628483788 42.06184395434535 18.669922 42.244141 C 18.669922 42.244141 21.041792 43.097268 23.447266 41.894531 C 23.868359646271806 41.690861877949835 24.09203084951024 41.222517686310596 23.985756172110232 40.76698869365404 C 23.87948149471022 40.311459700997496 23.471653049977142 39.99044404924988 23.003906 39.994141 z" stroke-linecap="round" />
</g>
<g transform="matrix(NaN NaN NaN NaN 0 0)"  >
<g style=""   >
</g>
</g>
<g transform="matrix(NaN NaN NaN NaN 0 0)"  >
<g style=""   >
</g>
</g>
</svg>